<svg xmlns="http://www.w3.org/2000/svg" version="1.1" xmlns:xlink="http://www.w3.org/1999/xlink" xmlns:svgjs="http://svgjs.dev/svgjs" width="1500" height="1500" viewBox="0 0 1500 1500"><rect width="1500" height="1500" fill="#111111"></rect><g transform="matrix(0.6666666666666666,0,0,0.6666666666666666,249.39393939393938,691.5637003143569)"><svg viewBox="0 0 396 46" data-background-color="#111111" preserveAspectRatio="xMidYMid meet" height="174" width="1500" xmlns="http://www.w3.org/2000/svg" xmlns:xlink="http://www.w3.org/1999/xlink"><g id="tight-bounds" transform="matrix(1,0,0,1,0.2400000000000091,0.173015392582613)"><svg viewBox="0 0 395.52 45.65396921483475" height="45.65396921483475" width="395.52"><g><svg viewBox="0 0 459.7842358740099 53.0718430169356" height="45.65396921483475" width="395.52"><g transform="matrix(1,0,0,1,64.26423587400988,2.830858611192607)"><svg viewBox="0 0 395.52 47.41012579455039" height="47.41012579455039" width="395.52"><g id="textblocktransform"><svg viewBox="0 0 395.52 47.41012579455039" height="47.41012579455039" width="395.52" id="textblock"><g><svg viewBox="0 0 395.52 47.41012579455039" height="47.41012579455039" width="395.52"><g transform="matrix(1,0,0,1,0,0)"><svg width="395.52" viewBox="4 -39.95 337.43499945919996 40.45" height="47.41012579455039" data-palette-color="#ffffff"><path d="M13.3-22.85L22.95-22.85Q24.25-22.85 25.65-22.3 27.05-21.75 28.35-20.85L28.35-20.85 28.3-20.85Q29.6-19.95 30.3-18.4 31-16.85 31-14.85L31-14.85 31-8Q31-3.95 28.3-1.95L28.3-1.95Q27-1 25.63-0.48 24.25 0.05 22.95 0.05L22.95 0.05 12.05 0.05Q10.75 0.05 9.38-0.48 8-1 6.7-1.95L6.7-1.95Q4-3.95 4-8L4-8 4-11.3Q4-13.65 6.95-13.65L6.95-13.65Q9.95-13.65 9.95-11.3L9.95-11.3 9.95-8.4Q9.95-7.1 10.7-6.05 11.45-5 13.3-5L13.3-5 21.7-5Q23.55-5 24.3-6.05 25.05-7.1 25.05-8.4L25.05-8.4 25.05-14.45Q25.05-15.7 24.3-16.78 23.55-17.85 21.7-17.85L21.7-17.85 12.05-17.85Q9.45-17.85 6.7-19.75L6.7-19.75Q4-21.85 4-25.8L4-25.8 4-31.75Q4-33.75 4.7-35.27 5.4-36.8 6.7-37.75L6.7-37.75 6.65-37.75Q7.95-38.6 9.35-39.15 10.75-39.7 12.05-39.7L12.05-39.7 22.95-39.7Q24.25-39.7 25.65-39.15 27.05-38.6 28.35-37.75L28.35-37.75 28.3-37.75Q29.6-36.8 30.3-35.27 31-33.75 31-31.75L31-31.75 31-28.8Q31-26.45 28-26.45L28-26.45Q25.05-26.45 25.05-28.8L25.05-28.8 25.05-31.3Q25.05-32.55 24.3-33.6 23.55-34.65 21.7-34.65L21.7-34.65 13.3-34.65Q11.45-34.65 10.7-33.6 9.95-32.55 9.95-31.3L9.95-31.3 9.95-26.2Q9.95-24.9 10.7-23.88 11.45-22.85 13.3-22.85L13.3-22.85ZM65.8-11.3L65.8-8Q65.8-3.95 63.1-1.95L63.1-1.95Q61.8-1 60.42-0.48 59.05 0.05 57.75 0.05L57.75 0.05 46.85 0.05Q45.55 0.05 44.17-0.48 42.8-1 41.5-1.95L41.5-1.95Q40.2-2.95 39.5-4.42 38.8-5.9 38.8-8L38.8-8 38.8-31.75Q38.8-33.75 39.5-35.27 40.2-36.8 41.5-37.75L41.5-37.75 41.45-37.75Q42.75-38.6 44.15-39.15 45.55-39.7 46.85-39.7L46.85-39.7 57.75-39.7Q59.05-39.7 60.45-39.15 61.85-38.6 63.15-37.75L63.15-37.75 63.1-37.75Q64.4-36.8 65.1-35.27 65.8-33.75 65.8-31.75L65.8-31.75 65.8-28.3Q65.8-25.9 62.8-25.9L62.8-25.9Q59.85-25.9 59.85-28.3L59.85-28.3 59.85-31.3Q59.85-32.55 59.1-33.6 58.35-34.65 56.5-34.65L56.5-34.65 48.1-34.65Q46.25-34.65 45.5-33.6 44.75-32.55 44.75-31.3L44.75-31.3 44.75-8.4Q44.75-7.1 45.5-6.05 46.25-5 48.1-5L48.1-5 56.5-5Q58.35-5 59.1-6.05 59.85-7.1 59.85-8.4L59.85-8.4 59.85-11.3Q59.85-13.65 62.8-13.65L62.8-13.65Q65.8-13.65 65.8-11.3L65.8-11.3ZM96.65-0.6L87.2-16.45 83.35-16.45Q82.5-16.45 82.02-17.13 81.55-17.8 81.55-18.95L81.55-18.95Q81.55-21.5 83.65-21.5L83.65-21.5 89.5-21.5Q91.35-21.5 92.1-22.55 92.85-23.6 92.85-24.85L92.85-24.85 92.85-31.3Q92.85-32.55 92.1-33.6 91.35-34.65 89.5-34.65L89.5-34.65 78.95-34.65 78.95-2.05Q78.95 0.35 76 0.35L76 0.35Q73.05 0.35 73.05-2.05L73.05-2.05 73.05-36.7Q73.05-38.5 73.97-39.1 74.9-39.7 76.2-39.7L76.2-39.7 90.75-39.7Q92.05-39.7 93.45-39.15 94.85-38.6 96.15-37.75L96.15-37.75 96.1-37.75Q97.4-36.8 98.1-35.27 98.8-33.75 98.8-31.75L98.8-31.75 98.8-24.45Q98.8-20.4 96.1-18.4L96.1-18.4Q95.55-18 94.92-17.65 94.3-17.3 93.65-16.95L93.65-16.95 101.65-3.75Q101.8-3.5 101.95-3.1 102.1-2.7 102.1-2.45L102.1-2.45Q102.1-1.25 100.4-0.15L100.4-0.15 100.4-0.2Q99.25 0.5 98.45 0.5L98.45 0.5Q97.3 0.5 96.6-0.65L96.6-0.65 96.65-0.6ZM128.24 0.05L109.94 0.05Q108.09 0.05 107.44-0.9 106.79-1.85 106.79-3L106.79-3 106.79-36.7Q106.79-37.85 107.44-38.78 108.09-39.7 109.94-39.7L109.94-39.7 127.34-39.7Q129.19-39.7 129.29-37.2L129.29-37.2Q129.39-34.65 127.34-34.65L127.34-34.65 112.69-34.65 112.69-5 128.24-5Q130.09-5 130.14-2.55L130.14-2.55Q130.24 0.05 128.24 0.05L128.24 0.05ZM125.49-20.65L125.49-20.65Q125.49-18.9 124.27-17.7 123.04-16.5 121.29-16.5L121.29-16.5Q119.59-16.5 118.39-17.7 117.19-18.9 117.19-20.65L117.19-20.65Q117.19-22.4 118.39-23.6 119.59-24.8 121.29-24.8L121.29-24.8Q123.04-24.8 124.27-23.6 125.49-22.4 125.49-20.65ZM157.04 0.05L138.74 0.05Q136.89 0.05 136.24-0.9 135.59-1.85 135.59-3L135.59-3 135.59-36.7Q135.59-37.85 136.24-38.78 136.89-39.7 138.74-39.7L138.74-39.7 156.14-39.7Q157.99-39.7 158.09-37.2L158.09-37.2Q158.19-34.65 156.14-34.65L156.14-34.65 141.49-34.65 141.49-5 157.04-5Q158.89-5 158.94-2.55L158.94-2.55Q159.04 0.05 157.04 0.05L157.04 0.05ZM154.29-20.65L154.29-20.65Q154.29-18.9 153.07-17.7 151.84-16.5 150.09-16.5L150.09-16.5Q148.39-16.5 147.19-17.7 145.99-18.9 145.99-20.65L145.99-20.65Q145.99-22.4 147.19-23.6 148.39-24.8 150.09-24.8L150.09-24.8Q151.84-24.8 153.07-23.6 154.29-22.4 154.29-20.65ZM186.49-10.5L186.49-37.55Q186.49-39.95 189.44-39.95L189.44-39.95Q192.39-39.95 192.39-37.55L192.39-37.55 192.39-3.05Q192.39-1.3 190.54-0.5L190.54-0.5 190.59-0.5Q189.79-0.15 188.89 0.05 187.99 0.25 187.14 0.25L187.14 0.25Q186.49 0.25 185.79 0.13 185.09 0 184.46-0.28 183.84-0.55 183.31-1.03 182.79-1.5 182.49-2.2L182.49-2.2 171.64-29.25 170.29-29.1 170.29-2.1Q170.29 0.3 167.29 0.3L167.29 0.3Q164.34 0.3 164.34-2.1L164.34-2.1 164.34-36.55Q164.34-38.6 166.14-39.3L166.14-39.3Q167.79-39.95 169.64-39.95L169.64-39.95Q170.94-39.95 172.26-39.43 173.59-38.9 174.29-37.45L174.29-37.45 185.09-10.35 186.49-10.5ZM224.13-22.85L233.78-22.85Q235.08-22.85 236.48-22.3 237.88-21.75 239.18-20.85L239.18-20.85 239.13-20.85Q240.43-19.95 241.13-18.4 241.83-16.85 241.83-14.85L241.83-14.85 241.83-8Q241.83-3.95 239.13-1.95L239.13-1.95Q237.83-1 236.46-0.48 235.08 0.05 233.78 0.05L233.78 0.05 222.88 0.05Q221.58 0.05 220.21-0.48 218.83-1 217.53-1.95L217.53-1.95Q214.83-3.95 214.83-8L214.83-8 214.83-11.3Q214.83-13.65 217.78-13.65L217.78-13.65Q220.78-13.65 220.78-11.3L220.78-11.3 220.78-8.4Q220.78-7.1 221.53-6.05 222.28-5 224.13-5L224.13-5 232.53-5Q234.38-5 235.13-6.05 235.88-7.1 235.88-8.4L235.88-8.4 235.88-14.45Q235.88-15.7 235.13-16.78 234.38-17.85 232.53-17.85L232.53-17.85 222.88-17.85Q220.28-17.85 217.53-19.75L217.53-19.75Q214.83-21.85 214.83-25.8L214.83-25.8 214.83-31.75Q214.83-33.75 215.53-35.27 216.23-36.8 217.53-37.75L217.53-37.75 217.48-37.75Q218.78-38.6 220.18-39.15 221.58-39.7 222.88-39.7L222.88-39.7 233.78-39.7Q235.08-39.7 236.48-39.15 237.88-38.6 239.18-37.75L239.18-37.75 239.13-37.75Q240.43-36.8 241.13-35.27 241.83-33.75 241.83-31.75L241.83-31.75 241.83-28.8Q241.83-26.45 238.83-26.45L238.83-26.45Q235.88-26.45 235.88-28.8L235.88-28.8 235.88-31.3Q235.88-32.55 235.13-33.6 234.38-34.65 232.53-34.65L232.53-34.65 224.13-34.65Q222.28-34.65 221.53-33.6 220.78-32.55 220.78-31.3L220.78-31.3 220.78-26.2Q220.78-24.9 221.53-23.88 222.28-22.85 224.13-22.85L224.13-22.85ZM267.43-14.7L260.53-14.7Q259.68-14.7 259.21-15.38 258.73-16.05 258.73-17.2L258.73-17.2Q258.73-19.75 260.83-19.75L260.83-19.75 266.13-19.75Q267.98-19.75 268.76-20.8 269.53-21.85 269.53-23.1L269.53-23.1 269.53-31.3Q269.53-32.55 268.76-33.6 267.98-34.65 266.13-34.65L266.13-34.65 255.63-34.65 255.63-2Q255.63 0.4 252.63 0.4L252.63 0.4Q249.73 0.4 249.73-2L249.73-2 249.73-36.7Q249.73-38.5 250.63-39.1 251.53-39.7 252.83-39.7L252.83-39.7 267.43-39.7Q268.68-39.7 270.08-39.15 271.48-38.6 272.78-37.75L272.78-37.75 272.73-37.75Q274.03-36.8 274.73-35.27 275.43-33.75 275.43-31.75L275.43-31.75 275.43-22.7Q275.43-18.65 272.73-16.65L272.73-16.65Q271.43-15.7 270.08-15.2 268.73-14.7 267.43-14.7L267.43-14.7ZM291.03-39.7L301.93-39.7Q303.23-39.7 304.63-39.15 306.03-38.6 307.33-37.75L307.33-37.75 307.28-37.75Q308.58-36.8 309.28-35.27 309.98-33.75 309.98-31.75L309.98-31.75 309.98-8Q309.98-3.95 307.28-1.95L307.28-1.95Q305.98-1 304.6-0.48 303.23 0.05 301.93 0.05L301.93 0.05 291.03 0.05Q289.73 0.05 288.35-0.48 286.98-1 285.68-1.95L285.68-1.95Q284.38-2.95 283.68-4.42 282.98-5.9 282.98-8L282.98-8 282.98-31.75Q282.98-33.75 283.68-35.27 284.38-36.8 285.68-37.75L285.68-37.75 285.63-37.75Q286.93-38.6 288.33-39.15 289.73-39.7 291.03-39.7L291.03-39.7ZM292.28-5L300.68-5Q302.53-5 303.28-6.05 304.03-7.1 304.03-8.4L304.03-8.4 304.03-31.3Q304.03-32.55 303.28-33.6 302.53-34.65 300.68-34.65L300.68-34.65 292.28-34.65Q290.43-34.65 289.68-33.6 288.93-32.55 288.93-31.3L288.93-31.3 288.93-8.4Q288.93-7.1 289.68-6.05 290.43-5 292.28-5L292.28-5ZM330.88-34.65L330.88-2Q330.88 0.4 327.88 0.4L327.88 0.4Q324.93 0.4 324.93-2L324.93-2 324.93-34.65 316.18-34.65Q314.38-34.65 314.28-37.2L314.28-37.2Q314.28-39.7 316.18-39.7L316.18-39.7 339.63-39.7Q341.53-39.7 341.43-37.2L341.43-37.2Q341.43-34.65 339.63-34.65L339.63-34.65 330.88-34.65Z" opacity="1" transform="matrix(1,0,0,1,0,0)" fill="#ffffff" class="wordmark-text-0" data-fill-palette-color="primary" id="text-0"></path></svg></g></svg></g></svg></g></svg></g><g><svg viewBox="0 0 53.0718430169356 53.0718430169356" height="53.0718430169356" width="53.0718430169356"><g data-palette-color="#ffffff"><rect width="14.5063037579624" height="53.0718430169356" fill="#ffffff" stroke="transparent" data-fill-palette-color="accent" x="0" fill-opacity="0.5"></rect><rect width="14.5063037579624" height="53.0718430169356" fill="#ffffff" stroke="transparent" data-fill-palette-color="accent" x="17.690614338978534" fill-opacity="0.75"></rect><rect width="14.5063037579624" height="53.0718430169356" fill="#ffffff" stroke="transparent" data-fill-palette-color="accent" x="35.38122867795707" fill-opacity="1"></rect></g></svg></g></svg></g><defs></defs></svg><rect width="395.52" height="45.65396921483475" fill="none" stroke="none" visibility="hidden"></rect></g></svg></g></svg>